<svg width="50" height="50" fill="none" xmlns="http://www.w3.org/2000/svg"><path d="M21.268 15.783L25 13.822l3.732 1.961a1.172 1.172 0 001.7-1.235l-.713-4.155 3.02-2.943a1.172 1.172 0 00-.65-1.999l-4.172-.606-1.866-3.78a1.172 1.172 0 00-2.102 0l-1.866 3.78-4.172.606a1.172 1.172 0 00-.65 1.999l3.02 2.943-.713 4.155a1.171 1.171 0 001.7 1.235zM49.124 17.812l-3.373-2.53.172-4.212a1.172 1.172 0 00-1.846-1.006L40.63 12.49l-3.954-1.465a1.172 1.172 0 00-1.527 1.444l1.242 4.03-2.614 3.307a1.172 1.172 0 00.901 1.898l4.216.064 2.337 3.508a1.171 1.171 0 002.084-.27l1.364-3.99 4.059-1.139a1.173 1.173 0 00.386-2.065zM15.322 21.704a1.172 1.172 0 00.901-1.898l-2.614-3.308 1.242-4.029a1.172 1.172 0 00-1.527-1.444L9.37 12.49l-3.447-2.426a1.172 1.172 0 00-1.846 1.006l.172 4.212-3.373 2.53a1.172 1.172 0 00.386 2.066l4.06 1.138 1.363 3.99a1.172 1.172 0 002.084.27l2.337-3.508 4.216-.064z" fill="#BE9230"/><path d="M39.453 33.984a2.345 2.345 0 002.27-1.758 2.345 2.345 0 00-2.27-1.757H30.86v-5.371c0-1.461 0-4.374-3.833-4.746a.783.783 0 00-.854.778v5.309c0 .145-.04.286-.116.41l-2.228 3.62h.098l-3.223 2.104v15.055c.475.275 1.014.42 1.563.419H37.89a2.345 2.345 0 002.27-1.758 2.345 2.345 0 00-2.27-1.758h-2.344V43.36h3.125a2.345 2.345 0 002.27-1.758 2.345 2.345 0 00-2.27-1.757h-3.125v-1.172h3.906a2.345 2.345 0 002.27-1.758 2.345 2.345 0 00-2.27-1.758h-3.906v-1.172h3.906zM18.36 30.469h-7.813a1.172 1.172 0 00-1.172 1.172v16.406a1.172 1.172 0 001.172 1.172h7.812a1.172 1.172 0 001.172-1.172V31.64a1.172 1.172 0 00-1.172-1.172zm-3.907 16.894a1.172 1.172 0 110-2.343 1.172 1.172 0 010 2.343z" fill="#0033A1"/></svg>