<svg width="20" height="20" fill="none" xmlns="http://www.w3.org/2000/svg"><g clip-path="url(#clip0)"><path d="M10 20c5.515 0 10-4.486 10-10S15.516 0 10 0C4.488 0 .002 4.486.002 10s4.486 10 10 10zm-6.519-5.063c.792-.311 1.79-.56 2.911-.73.153.914.355 1.761.604 2.509.13.391.268.737.41 1.044a8.215 8.215 0 01-3.925-2.823zM1.82 10c0-1.197.258-2.334.722-3.36.983.421 2.225.747 3.624.957a27.563 27.563 0 000 4.806c-1.399.21-2.64.536-3.624.957A8.134 8.134 0 011.82 10zm8.182-8.182c.196 0 .766.499 1.28 2.041.211.634.385 1.353.52 2.132a25.865 25.865 0 01-3.6 0c.135-.779.308-1.498.52-2.132.514-1.542 1.084-2.04 1.28-2.04zm0 6.053c.692 0 1.371-.025 2.029-.074.06.71.092 1.448.092 2.203 0 .755-.032 1.493-.092 2.203a27.573 27.573 0 00-4.058 0c-.06-.71-.092-1.448-.092-2.203 0-.755.031-1.493.092-2.203a27.59 27.59 0 002.029.074zm8.182 2.13a8.135 8.135 0 01-.722 3.359c-.983-.421-2.225-.747-3.624-.957a27.57 27.57 0 000-4.806c1.399-.21 2.64-.536 3.624-.957a8.135 8.135 0 01.722 3.36zM10 18.18c-.196 0-.766-.498-1.28-2.04a14.686 14.686 0 01-.52-2.132 25.825 25.825 0 013.6 0 14.7 14.7 0 01-.52 2.132c-.514 1.542-1.084 2.04-1.28 2.04zm2.595-.421c.142-.307.28-.653.41-1.044.25-.748.451-1.595.604-2.51 1.12.171 2.118.42 2.91.731a8.216 8.216 0 01-3.924 2.823zm3.925-12.697c-.793.311-1.79.56-2.912.73a16.652 16.652 0 00-.603-2.509c-.13-.391-.268-.737-.41-1.044a8.216 8.216 0 013.925 2.823zM7.406 2.24c-.142.307-.28.653-.41 1.044-.25.748-.451 1.595-.604 2.51-1.12-.171-2.119-.42-2.91-.731A8.215 8.215 0 017.405 2.24z" fill="#F3D79A"/></g><defs><clipPath id="clip0"><path fill="#fff" d="M0 0h20v20H0z"/></clipPath></defs></svg>