<svg width="195" height="40" viewBox="0 0 195 40" fill="none" xmlns="http://www.w3.org/2000/svg">
<g clip-path="url(#clip0)">
<path d="M194.429 4.77841C194.429 5.99118 194 6.98993 193.142 7.77467C192.285 8.63074 191.285 9.05877 190.141 9.05877C188.998 9.05877 187.926 8.63074 187.14 7.77467C186.283 6.91859 185.854 5.91984 185.854 4.77841C185.854 3.56564 186.283 2.56689 187.14 1.78216C187.998 0.926083 188.998 0.498047 190.141 0.498047C191.285 0.498047 192.356 0.926083 193.142 1.78216C194 2.56689 194.429 3.56564 194.429 4.77841ZM193.5 4.77841C193.5 3.851 193.142 3.06627 192.499 2.42421C191.856 1.78216 191.07 1.42546 190.141 1.42546C189.212 1.42546 188.426 1.78216 187.783 2.42421C187.14 3.06627 186.783 3.851 186.783 4.77841C186.783 5.70582 187.14 6.49056 187.783 7.13261C188.426 7.77467 189.212 8.13136 190.141 8.13136C191.07 8.13136 191.856 7.77467 192.499 7.13261C193.142 6.49056 193.5 5.70582 193.5 4.77841ZM192.499 6.77591H191.213L189.998 5.20645H189.498V6.77591H188.498V2.49555H190.07C190.356 2.49555 190.57 2.49555 190.784 2.49555C190.927 2.49555 191.142 2.56689 191.285 2.63823C191.499 2.78091 191.642 2.85225 191.713 3.06627C191.785 3.20894 191.856 3.42296 191.856 3.63698C191.856 3.92234 191.785 4.2077 191.57 4.42171C191.427 4.63573 191.213 4.77841 190.927 4.84975L192.499 6.77591ZM190.713 3.77966C190.713 3.70832 190.713 3.63698 190.641 3.56564C190.641 3.4943 190.57 3.42296 190.427 3.35162C190.356 3.28028 190.284 3.28028 190.141 3.28028C190.07 3.28028 189.927 3.28028 189.784 3.28028H189.498V4.49305H189.713C189.855 4.49305 189.998 4.49305 190.141 4.42171C190.284 4.42171 190.356 4.35037 190.427 4.27904C190.499 4.2077 190.57 4.13636 190.57 4.06502C190.713 3.99368 190.713 3.92234 190.713 3.77966Z" fill="#0033A1"/>
<path d="M19.2929 8.41672C19.2929 9.55815 19.0785 10.6996 18.7213 11.7697C18.364 12.8398 17.7924 13.6958 17.1493 14.4092C16.7205 14.8373 16.2203 15.2653 15.7202 15.622C15.22 15.9787 14.6483 16.3354 14.0053 16.5494C13.3622 16.8348 12.7191 16.9774 12.0045 17.1201C11.29 17.2628 10.4325 17.3341 9.57506 17.3341H6.28814V25.5382H0.00012207V0.498047H9.71797C11.1471 0.498047 12.4332 0.640726 13.5051 0.926083C14.5769 1.21144 15.5058 1.63948 16.3633 2.21019C17.2922 2.78091 18.0067 3.63698 18.5784 4.70707C19.0785 5.77716 19.2929 6.98993 19.2929 8.41672ZM12.862 8.63074C12.862 7.91734 12.7191 7.34663 12.3618 6.77591C12.0045 6.27654 11.6472 5.91984 11.1471 5.70582C10.5754 5.42047 10.0038 5.27779 9.43215 5.27779C8.86051 5.20645 8.14596 5.20645 7.21705 5.20645H6.28814V12.6971H6.71687C7.28851 12.6971 7.86014 12.6971 8.43178 12.6971C8.93197 12.6971 9.43215 12.6257 9.78942 12.5544C10.1467 12.4831 10.504 12.4117 10.8612 12.1977C11.2185 12.055 11.5043 11.841 11.7187 11.627C12.1474 11.199 12.4332 10.7709 12.5762 10.3429C12.7905 9.98619 12.862 9.34413 12.862 8.63074Z" fill="#0033A1"/>
<path d="M21.2936 25.6095V0.498047H38.2998V5.27779H27.5816V9.70083H37.4424V14.4806H27.5816V20.8298H38.2998V25.6095H21.2936Z" fill="#0033A1"/>
<path d="M52.1621 7.70333L46.5886 25.6095H40.2291L48.7322 0.498047H55.5919L64.095 25.6095H57.5926L52.1621 7.70333Z" fill="#0033A1"/>
<path d="M65.9529 25.6095L74.456 0.498047H81.3157L89.8188 25.6095H83.3164L81.7444 20.4731H73.8844L72.3124 25.6095H65.9529ZM80.3867 15.9787L77.8144 7.70333L75.242 15.9787H80.3867Z" fill="#0033A1"/>
<path d="M95.3922 25.6095V5.27779H87.9609V0.498047H109.183V5.27779H101.752V25.6095H95.3922Z" fill="#0033A1"/>
<path d="M134.621 13.0542C134.621 17.1205 133.549 20.3308 131.334 22.6137C129.19 24.9679 126.189 26.1093 122.402 26.1093C118.615 26.1093 115.614 24.8965 113.47 22.5423C111.327 20.1881 110.255 17.0492 110.255 12.9828C110.255 8.9165 111.327 5.77756 113.47 3.42336C115.614 1.06916 118.615 -0.0722656 122.402 -0.0722656C126.189 -0.0722656 129.19 1.06916 131.334 3.42336C133.478 5.8489 134.621 9.05918 134.621 13.0542ZM128.047 13.0542C128.047 11.5561 127.904 10.2719 127.618 9.2732C127.332 8.2031 126.904 7.34703 126.404 6.70498C125.832 5.99158 125.26 5.56355 124.546 5.20685C123.831 4.92149 123.188 4.77881 122.402 4.77881C121.616 4.77881 120.902 4.92149 120.258 5.20685C119.615 5.49221 119.044 5.99158 118.472 6.70498C117.972 7.34703 117.543 8.2031 117.186 9.2732C116.9 10.3433 116.686 11.6274 116.686 13.1255C116.686 14.695 116.829 15.9791 117.114 16.9778C117.4 17.9766 117.829 18.8327 118.401 19.5461C118.972 20.2595 119.544 20.7588 120.258 21.0442C120.973 21.3296 121.688 21.4722 122.402 21.4722C123.117 21.4722 123.831 21.3296 124.546 20.9729C125.26 20.6162 125.832 20.1881 126.332 19.4747C126.904 18.7613 127.261 17.9053 127.618 16.9065C127.904 15.9078 128.047 14.6236 128.047 13.0542Z" fill="#0033A1"/>
<path d="M172.277 26.1102C168.49 26.1102 165.489 24.9688 163.274 22.6859C161.059 20.4031 159.916 17.1928 159.916 13.0551C159.916 9.0601 161.059 5.92117 163.274 3.56697C165.489 1.21277 168.49 0 172.277 0C173.278 0 174.207 0.0713394 174.993 0.142679C175.779 0.285358 176.565 0.428036 177.279 0.642055C177.851 0.784733 178.494 1.07009 179.137 1.35545C179.78 1.64081 180.352 1.92616 180.781 2.14018V8.13269H180.209C179.923 7.84733 179.494 7.56198 179.066 7.13394C178.637 6.77724 178.065 6.42055 177.494 6.06385C176.922 5.70715 176.279 5.42179 175.564 5.13644C174.85 4.92242 174.135 4.77974 173.349 4.77974C172.42 4.77974 171.634 4.92242 170.848 5.20778C170.062 5.49313 169.348 5.99251 168.705 6.7059C168.062 7.34796 167.561 8.20403 167.133 9.27412C166.704 10.3442 166.561 11.6283 166.561 13.1264C166.561 14.6959 166.775 15.98 167.204 17.0501C167.633 18.1202 168.133 18.9763 168.848 19.6183C169.491 20.2604 170.205 20.6884 171.063 20.9738C171.849 21.2591 172.635 21.4018 173.492 21.4018C174.35 21.4018 175.136 21.2591 175.85 20.9738C176.636 20.6884 177.208 20.4031 177.779 20.0464C178.351 19.6897 178.851 19.333 179.28 18.9763C179.709 18.6196 180.066 18.2629 180.423 17.9775H180.995V23.8987C180.566 24.1127 179.995 24.3267 179.423 24.6121C178.78 24.8974 178.208 25.1115 177.565 25.3255C176.779 25.5395 176.065 25.7535 175.35 25.8249C174.421 26.0389 173.492 26.1102 172.277 26.1102Z" fill="#0033A1"/>
<path d="M160.273 25.6095H152.627L145.768 15.408L144.553 17.1201V25.6095H138.265V0.498047H144.553V11.6983L152.556 0.498047H159.844L150.913 12.1977L160.273 25.6095Z" fill="#0033A1"/>
<path d="M14.2396 37.7855H13.5538V32.7436H10.6858V37.7855H10V32.1211H14.2396V37.7855Z" fill="#0033A1"/>
<path d="M17.4818 37.8475C16.8583 37.8475 16.3595 37.6607 15.9854 37.2873C15.6114 36.9138 15.4243 36.4158 15.4243 35.7311C15.4243 35.0464 15.6114 34.4862 15.9231 34.1127C16.2348 33.7392 16.7336 33.4902 17.2947 33.4902C17.8558 33.4902 18.2299 33.677 18.5417 33.9882C18.8534 34.3617 18.9781 34.7974 18.9781 35.3576V35.7933H16.1101C16.1101 36.2913 16.2348 36.6648 16.4842 36.9138C16.7336 37.1628 17.0453 37.2873 17.4818 37.2873C17.9182 37.2873 18.417 37.1628 18.8534 36.976V37.5362C18.604 37.6607 18.417 37.723 18.2299 37.723C18.0429 37.723 17.7935 37.8475 17.4818 37.8475ZM17.2947 33.9882C16.983 33.9882 16.6713 34.1127 16.4842 34.2994C16.2972 34.5484 16.1725 34.7974 16.1101 35.2331H18.3546C18.3546 34.8596 18.2923 34.5484 18.1052 34.2994C17.9182 34.0504 17.6688 33.9882 17.2947 33.9882Z" fill="#0033A1"/>
<path d="M22.0953 37.8472C21.846 37.8472 21.5966 37.785 21.3472 37.7227C21.0978 37.5982 20.9108 37.4737 20.7861 37.2247H20.7237C20.7237 37.4737 20.7861 37.7227 20.7861 37.9095V39.6524H20.1626V33.49H20.6614L20.7237 34.0502C20.9108 33.8012 21.0978 33.6767 21.2848 33.5522C21.5342 33.4277 21.7836 33.4277 22.033 33.4277C22.5941 33.4277 23.0306 33.6145 23.3423 33.9879C23.654 34.3614 23.7787 34.9216 23.7787 35.6064C23.7787 36.2911 23.654 36.8513 23.3423 37.2247C23.0306 37.5982 22.6565 37.8472 22.0953 37.8472ZM22.033 34.0502C21.5966 34.0502 21.2848 34.1747 21.0978 34.4237C20.9108 34.6727 20.7861 35.0461 20.7861 35.5441V35.6686C20.7861 36.2911 20.9108 36.6645 21.0978 36.9758C21.2848 37.287 21.5966 37.3492 22.033 37.3492C22.4071 37.3492 22.6565 37.2247 22.9059 36.9135C23.0929 36.6023 23.2176 36.2288 23.2176 35.6686C23.2176 35.1706 23.0929 34.7349 22.9059 34.4237C22.6565 34.1747 22.4071 34.0502 22.033 34.0502Z" fill="#0033A1"/>
<path d="M28.4547 34.612C28.4547 34.861 28.3924 35.11 28.2053 35.2345C28.0183 35.359 27.8312 35.4835 27.5195 35.5457V35.608C27.8936 35.6702 28.143 35.7325 28.33 35.9192C28.5171 36.1059 28.5794 36.2927 28.5794 36.6039C28.5794 36.9774 28.4547 37.2886 28.143 37.5376C27.8312 37.7866 27.4572 37.8488 26.896 37.8488H25.0256V33.6161H26.896C27.8936 33.5538 28.4547 33.9273 28.4547 34.612ZM27.8312 34.6743C27.8312 34.4875 27.7689 34.3008 27.5819 34.2386C27.3948 34.1763 27.2078 34.1141 26.8337 34.1141H25.6491V35.2967H26.709C27.0831 35.2967 27.3948 35.2345 27.5195 35.1722C27.7065 35.0478 27.8312 34.9233 27.8312 34.6743ZM27.9559 36.5417C27.9559 36.2927 27.8936 36.1682 27.7065 36.0437C27.5195 35.9192 27.2701 35.857 26.8337 35.857H25.6491V37.2264H26.8337C27.5819 37.2264 27.9559 37.0396 27.9559 36.5417Z" fill="#0033A1"/>
<path d="M30.138 35.2956H31.3226C31.8837 35.2956 32.2578 35.4201 32.5072 35.6069C32.7566 35.7936 32.8813 36.1048 32.8813 36.4783C32.8813 36.914 32.7566 37.2253 32.4448 37.4742C32.1954 37.661 31.759 37.7855 31.2602 37.7855H29.5145V33.5527H30.138V35.2956ZM30.138 35.8558V37.2253H31.1979C31.8837 37.2253 32.1954 36.9763 32.1954 36.5405C32.1954 36.2916 32.1331 36.1048 31.9461 36.0426C31.759 35.9803 31.5096 35.8558 31.1355 35.8558H30.138ZM34.2529 37.7855H33.6294V33.5527H34.2529V37.7855Z" fill="#0033A1"/>
<path d="M36.2481 33.5534V36.23V36.9147V37.1637L38.5549 33.5534H39.3031V37.7862H38.6796V35.1718V34.6739V34.1759L36.3728 37.7862H35.5623V33.5534H36.2481ZM37.4327 32.9932C36.9339 32.9932 36.6222 32.931 36.3728 32.7442C36.1234 32.5575 36.061 32.2463 35.9987 31.8105H36.6222C36.6222 32.0595 36.6845 32.2463 36.8092 32.3708C36.9339 32.4953 37.1209 32.5575 37.4327 32.5575C37.682 32.5575 37.8691 32.4953 37.9938 32.3708C38.1185 32.2463 38.1808 32.0595 38.2432 31.8105H38.8666C38.8666 32.2463 38.6796 32.4953 38.4926 32.682C38.2432 32.8687 37.9314 32.9932 37.4327 32.9932Z" fill="#0033A1"/>
<path d="M44.6649 37.8472C44.4155 37.8472 44.1662 37.785 43.9168 37.7227C43.6674 37.5982 43.4803 37.4737 43.3556 37.2247H43.2933C43.2933 37.4737 43.3556 37.7227 43.3556 37.9095V39.6524H42.7322V33.49H43.231L43.2933 34.0502C43.4803 33.8012 43.6674 33.6767 43.8544 33.5522C44.1038 33.4277 44.3532 33.4277 44.6026 33.4277C45.1637 33.4277 45.6001 33.6145 45.9119 33.9879C46.2236 34.3614 46.3483 34.9216 46.3483 35.6064C46.3483 36.2911 46.2236 36.8513 45.9119 37.2247C45.6001 37.5982 45.226 37.8472 44.6649 37.8472ZM44.6026 34.0502C44.1662 34.0502 43.8544 34.1747 43.6674 34.4237C43.4803 34.6727 43.3556 35.0461 43.3556 35.5441V35.6686C43.3556 36.2911 43.4803 36.6645 43.6674 36.9758C43.8544 37.287 44.1662 37.3492 44.6026 37.3492C44.9767 37.3492 45.2261 37.2247 45.4754 36.9135C45.6625 36.6023 45.7872 36.2288 45.7872 35.6686C45.7872 35.1706 45.6625 34.7349 45.4754 34.4237C45.2261 34.1747 44.9767 34.0502 44.6026 34.0502Z" fill="#0033A1"/>
<path d="M51.2113 35.6688C51.2113 36.3536 51.0243 36.9138 50.7126 37.2873C50.4008 37.6607 49.902 37.8475 49.2786 37.8475C48.9045 37.8475 48.5928 37.7852 48.281 37.5985C47.9693 37.4117 47.7823 37.1628 47.5952 36.8515C47.4082 36.5403 47.3458 36.1046 47.3458 35.6688C47.3458 34.9841 47.5329 34.4239 47.8446 34.0505C48.2187 33.677 48.6551 33.4902 49.2786 33.4902C49.902 33.4902 50.3385 33.677 50.7126 34.1127C51.0243 34.4862 51.2113 34.9841 51.2113 35.6688ZM47.9693 35.6688C47.9693 36.2291 48.094 36.6025 48.281 36.9138C48.4681 37.225 48.8422 37.3495 49.2162 37.3495C49.5903 37.3495 49.9644 37.225 50.1514 36.9138C50.3385 36.6025 50.4632 36.2291 50.4632 35.6688C50.4632 35.1086 50.3385 34.7352 50.1514 34.4239C49.9021 34.1749 49.5903 33.9882 49.2162 33.9882C48.7798 33.9882 48.4681 34.1127 48.281 34.4239C48.094 34.7352 47.9693 35.1086 47.9693 35.6688Z" fill="#0033A1"/>
<path d="M54.0791 37.8475C53.4556 37.8475 53.0192 37.6607 52.6451 37.2873C52.3334 36.9138 52.1464 36.3536 52.1464 35.6688C52.1464 34.9841 52.3334 34.4239 52.6451 34.0505C52.9569 33.677 53.4556 33.4902 54.0791 33.4902C54.2661 33.4902 54.5155 33.4902 54.7026 33.5525C54.8896 33.6147 55.0767 33.677 55.2014 33.677L55.0143 34.2372C54.8896 34.1749 54.7026 34.1127 54.5779 34.1127C54.3908 34.0504 54.2662 34.0505 54.1415 34.0505C53.2686 34.0505 52.8322 34.6107 52.8322 35.6688C52.8322 36.1668 52.9569 36.6025 53.1439 36.8515C53.3309 37.1005 53.6427 37.2873 54.0791 37.2873C54.4532 37.2873 54.7649 37.225 55.139 37.0383V37.6607C54.8273 37.7852 54.4532 37.8475 54.0791 37.8475Z" fill="#0033A1"/>
<path d="M57.82 37.8475C57.1965 37.8475 56.7601 37.6607 56.386 37.2873C56.0742 36.9138 55.8872 36.3536 55.8872 35.6688C55.8872 34.9841 56.0742 34.4239 56.386 34.0505C56.6977 33.677 57.1965 33.4902 57.82 33.4902C58.007 33.4902 58.2564 33.4902 58.4434 33.5525C58.6305 33.6147 58.8175 33.677 58.9422 33.677L58.7552 34.2372C58.6305 34.1749 58.4434 34.1127 58.3187 34.1127C58.1317 34.0504 58.007 34.0505 57.8823 34.0505C57.0095 34.0505 56.573 34.6107 56.573 35.6688C56.573 36.1668 56.6977 36.6025 56.8848 36.8515C57.0718 37.1005 57.3835 37.2873 57.82 37.2873C58.194 37.2873 58.5058 37.225 58.8799 37.0383V37.6607C58.6305 37.7852 58.2564 37.8475 57.82 37.8475Z" fill="#0033A1"/>
<path d="M60.5009 33.5527V36.2293V36.914V37.163L62.8077 33.5527H63.6183V37.7855H62.9948V35.1711V34.6732V34.1752L60.688 37.7855H59.8774V33.5527H60.5009Z" fill="#0033A1"/>
<path d="M65.5509 33.5534V36.23V36.9147V37.1637L67.8578 33.5534H68.6059V37.7862H67.9825V35.1718V34.6739V34.1759L65.6756 37.7862H64.8651V33.5534H65.5509ZM66.7355 32.9932C66.2367 32.9932 65.925 32.931 65.6756 32.7442C65.4262 32.5575 65.3639 32.2463 65.3015 31.8105H65.925C65.925 32.0595 65.9874 32.2463 66.1121 32.3708C66.2367 32.4953 66.4238 32.5575 66.7355 32.5575C66.9849 32.5575 67.1719 32.4953 67.2966 32.3708C67.4213 32.2463 67.4837 32.0595 67.546 31.8105H68.1695C68.1695 32.2463 67.9825 32.4953 67.7954 32.682C67.546 32.8687 67.2343 32.9932 66.7355 32.9932Z" fill="#0033A1"/>
<path d="M71.661 37.8475C71.0376 37.8475 70.6011 37.6607 70.227 37.2873C69.9153 36.9138 69.7283 36.3536 69.7283 35.6688C69.7283 34.9841 69.9153 34.4239 70.227 34.0505C70.5388 33.677 71.0376 33.4902 71.661 33.4902C71.8481 33.4902 72.0975 33.4902 72.2845 33.5525C72.4715 33.6147 72.6586 33.677 72.7833 33.677L72.5962 34.2372C72.4715 34.1749 72.2845 34.1127 72.1598 34.1127C71.9728 34.0504 71.8481 34.0505 71.7234 34.0505C70.8505 34.0505 70.4141 34.6107 70.4141 35.6688C70.4141 36.1668 70.5388 36.6025 70.7258 36.8515C70.9129 37.1005 71.2246 37.2873 71.661 37.2873C72.0351 37.2873 72.3468 37.225 72.7209 37.0383V37.6607C72.4715 37.7852 72.0975 37.8475 71.661 37.8475Z" fill="#0033A1"/>
<path d="M76.2123 33.5527H76.8981L75.09 35.6069L77.0851 37.7855H76.337L74.4042 35.6691V37.7855H73.7808V33.5527H74.4042V35.6069L76.2123 33.5527Z" fill="#0033A1"/>
<path d="M78.4567 33.5527V36.2293V36.914V37.163L80.7636 33.5527H81.5741V37.7855H80.9506V35.1711V34.6732V34.1752L78.6438 37.7855H77.8333V33.5527H78.4567Z" fill="#0033A1"/>
<path d="M83.5069 33.5534V36.23V36.9147V37.1637L85.8137 33.5534H86.6242V37.7862H86.0008V35.1718V34.6739V34.1759L83.6939 37.7862H82.8834V33.5534H83.5069ZM84.6915 32.9932C84.1927 32.9932 83.881 32.931 83.6316 32.7442C83.3822 32.5575 83.3199 32.2463 83.2575 31.8105H83.881C83.881 32.0595 83.9433 32.2463 84.068 32.3708C84.1927 32.4953 84.3797 32.5575 84.6915 32.5575C84.9409 32.5575 85.1279 32.4953 85.2526 32.3708C85.3773 32.2463 85.4396 32.0595 85.502 31.8105H86.1255C86.1255 32.2463 85.9384 32.4953 85.7514 32.682C85.502 32.8687 85.1903 32.9932 84.6915 32.9932Z" fill="#0033A1"/>
<path d="M89.7416 35.2336C89.7416 34.2999 89.8663 33.5529 90.178 33.055C90.4274 32.557 90.8638 32.1835 91.4873 32.059C92.2354 31.8723 92.8589 31.7478 93.42 31.6855L93.5447 32.2458C92.6719 32.3703 91.9861 32.4947 91.612 32.6192C91.2379 32.6815 90.9262 32.9305 90.7391 33.2417C90.5521 33.5529 90.4274 33.9887 90.4274 34.5489H90.4897C90.6768 34.3621 90.8638 34.1754 91.1132 34.0509C91.3626 33.9264 91.612 33.8642 91.9237 33.8642C92.4225 33.8642 92.8589 34.0509 93.1707 34.3621C93.4824 34.6734 93.6071 35.1713 93.6071 35.7938C93.6071 36.4785 93.42 36.9765 93.1083 37.3499C92.7966 37.7234 92.2978 37.9102 91.6743 37.9102C91.0509 37.9102 90.6144 37.6612 90.3027 37.2255C89.9286 36.7275 89.7416 36.105 89.7416 35.2336ZM91.7367 37.3499C92.5472 37.3499 92.9213 36.852 92.9213 35.856C92.9213 34.9223 92.5472 34.4244 91.8614 34.4244C91.6743 34.4244 91.4873 34.4866 91.3002 34.5489C91.1132 34.6111 90.9262 34.7356 90.8015 34.8601C90.6768 34.9846 90.5521 35.1091 90.4274 35.2958C90.4274 35.9805 90.5521 36.4785 90.7391 36.852C90.9262 37.1632 91.2379 37.3499 91.7367 37.3499Z" fill="#0033A1"/>
<path d="M98.3454 35.6688C98.3454 36.3536 98.1583 36.9138 97.8466 37.2873C97.4725 37.6607 97.0361 37.8475 96.4126 37.8475C96.0385 37.8475 95.7268 37.7852 95.4151 37.5985C95.1033 37.4117 94.9163 37.1628 94.7292 36.8515C94.5422 36.5403 94.4799 36.1046 94.4799 35.6688C94.4799 34.9841 94.6669 34.4239 94.9786 34.0505C95.3527 33.677 95.7891 33.4902 96.4126 33.4902C97.0361 33.4902 97.4725 33.677 97.8466 34.1127C98.1583 34.4862 98.3454 34.9841 98.3454 35.6688ZM95.1033 35.6688C95.1033 36.2291 95.228 36.6025 95.4151 36.9138C95.6021 37.225 95.9762 37.3495 96.3503 37.3495C96.7867 37.3495 97.0984 37.225 97.2855 36.9138C97.4725 36.6025 97.5972 36.2291 97.5972 35.6688C97.5972 35.1086 97.4725 34.7352 97.2855 34.4239C97.0984 34.1127 96.7243 33.9882 96.2879 33.9882C95.8515 33.9882 95.5397 34.1127 95.3527 34.4239C95.1657 34.7352 95.1033 35.1086 95.1033 35.6688Z" fill="#0033A1"/>
<path d="M102.336 34.1129H100.964V37.7855H100.341V34.1129H98.969V33.5527H102.336V34.1129Z" fill="#0033A1"/>
<path d="M102.523 33.5527H103.208L104.144 35.9803C104.331 36.5406 104.455 36.914 104.518 37.163C104.58 37.0385 104.642 36.7895 104.705 36.4783C104.829 36.1671 105.141 35.1711 105.765 33.5527H106.45L104.642 38.4079C104.455 38.9059 104.268 39.2171 104.019 39.4039C103.77 39.5906 103.458 39.7151 103.146 39.7151C102.959 39.7151 102.772 39.7151 102.585 39.6529V39.1549C102.71 39.1549 102.897 39.2171 103.084 39.2171C103.52 39.2171 103.832 38.9682 104.019 38.4702L104.268 37.8477L102.523 33.5527Z" fill="#0033A1"/>
<path d="M110.378 37.7852H109.755V34.1127H108.508C108.446 35.0464 108.321 35.7311 108.196 36.2913C108.071 36.8515 107.884 37.225 107.697 37.474C107.51 37.723 107.261 37.8475 106.949 37.8475C106.824 37.8475 106.7 37.8475 106.637 37.7852V37.2873C106.7 37.2873 106.762 37.2873 106.824 37.2873C107.136 37.2873 107.386 36.976 107.51 36.3536C107.697 35.7311 107.822 34.7974 107.884 33.4902H110.378V37.7852Z" fill="#0033A1"/>
<path d="M115.366 35.6688C115.366 36.3536 115.179 36.9138 114.867 37.2873C114.493 37.6607 114.057 37.8475 113.433 37.8475C113.059 37.8475 112.748 37.7852 112.436 37.5985C112.124 37.4117 111.937 37.1628 111.75 36.8515C111.563 36.5403 111.501 36.1046 111.501 35.6688C111.501 34.9841 111.688 34.4239 111.999 34.0505C112.311 33.677 112.81 33.4902 113.433 33.4902C114.057 33.4902 114.493 33.677 114.867 34.1127C115.179 34.4862 115.366 34.9841 115.366 35.6688ZM112.124 35.6688C112.124 36.2291 112.249 36.6025 112.436 36.9138C112.623 37.225 112.997 37.3495 113.371 37.3495C113.745 37.3495 114.119 37.225 114.306 36.9138C114.556 36.6025 114.618 36.2291 114.618 35.6688C114.618 35.1086 114.493 34.7352 114.306 34.4239C114.119 34.1749 113.745 33.9882 113.371 33.9882C112.935 33.9882 112.623 34.1127 112.436 34.4239C112.249 34.7352 112.124 35.1086 112.124 35.6688Z" fill="#0033A1"/>
<path d="M119.356 34.1129H117.985V37.7855H117.361V34.1129H115.99V33.5527H119.356V34.1129Z" fill="#0033A1"/>
<path d="M123.845 35.6688C123.845 36.3536 123.658 36.9138 123.347 37.2873C122.972 37.6607 122.536 37.8475 121.913 37.8475C121.539 37.8475 121.227 37.7852 120.915 37.5985C120.603 37.4117 120.416 37.1628 120.229 36.8515C120.042 36.5403 119.98 36.1046 119.98 35.6688C119.98 34.9841 120.167 34.4239 120.479 34.0505C120.79 33.677 121.289 33.4902 121.913 33.4902C122.536 33.4902 122.972 33.677 123.347 34.1127C123.721 34.4862 123.845 34.9841 123.845 35.6688ZM120.666 35.6688C120.666 36.2291 120.79 36.6025 120.977 36.9138C121.164 37.225 121.539 37.3495 121.913 37.3495C122.287 37.3495 122.661 37.225 122.848 36.9138C123.097 36.6025 123.16 36.2291 123.16 35.6688C123.16 35.1086 123.035 34.7352 122.848 34.4239C122.661 34.1749 122.287 33.9882 121.913 33.9882C121.476 33.9882 121.164 34.1127 120.977 34.4239C120.728 34.7352 120.666 35.1086 120.666 35.6688Z" fill="#0033A1"/>
<path d="M127.461 33.5527H128.147L126.339 35.6069L128.334 37.7855H127.586L125.653 35.6691V37.7855H125.03V33.5527H125.653V35.6069L127.461 33.5527Z" fill="#0033A1"/>
<path d="M130.828 37.8475C130.205 37.8475 129.768 37.6607 129.394 37.2873C129.082 36.9138 128.895 36.3536 128.895 35.6688C128.895 34.9841 129.082 34.4239 129.394 34.0505C129.706 33.677 130.205 33.4902 130.828 33.4902C131.015 33.4902 131.264 33.4902 131.452 33.5525C131.639 33.6147 131.826 33.677 131.95 33.677L131.763 34.2372C131.639 34.1749 131.452 34.1127 131.327 34.1127C131.14 34.0504 131.015 34.0505 130.89 34.0505C130.018 34.0505 129.581 34.6107 129.581 35.6688C129.581 36.1668 129.706 36.6025 129.893 36.8515C130.08 37.1005 130.392 37.2873 130.828 37.2873C131.202 37.2873 131.514 37.225 131.888 37.0383V37.6607C131.576 37.7852 131.264 37.8475 130.828 37.8475Z" fill="#0033A1"/>
<path d="M133.509 33.5527V36.2293V36.914V37.163L135.816 33.5527H136.626V37.7855H136.003V35.1711V34.6732V34.1752L133.696 37.7855H132.885V33.5527H133.509Z" fill="#0033A1"/>
<path d="M138.559 33.5527V35.3579H140.928V33.5527H141.552V37.7855H140.928V35.8558H138.559V37.7855H137.936V33.5527H138.559Z" fill="#0033A1"/>
<path d="M147.849 34.1129H146.477V37.7855H145.854V34.1129H144.482V33.5527H147.849V34.1129Z" fill="#0033A1"/>
<path d="M149.283 33.5527V36.2293V36.914V37.163L151.59 33.5527H152.4V37.7855H151.777V35.1711V34.6732V34.1752L149.47 37.7855H148.659V33.5527H149.283Z" fill="#0033A1"/>
<path d="M154.395 37.7855H153.772V33.5527H157.326V37.7855H156.702V34.1129H154.458V37.7855H154.395Z" fill="#0033A1"/>
<path d="M161.253 37.785L161.129 37.1625C160.942 37.4115 160.692 37.5982 160.505 37.7227C160.318 37.8472 160.006 37.8472 159.695 37.8472C159.258 37.8472 158.946 37.7227 158.697 37.536C158.448 37.3492 158.323 37.038 158.323 36.6023C158.323 35.7308 159.009 35.2951 160.38 35.2329H161.129V34.9839C161.129 34.6727 161.066 34.4237 160.942 34.2369C160.817 34.0502 160.567 33.9879 160.256 33.9879C159.882 33.9879 159.508 34.1124 159.071 34.2992L158.884 33.8012C159.071 33.6767 159.321 33.6145 159.57 33.5522C159.819 33.49 160.069 33.4277 160.318 33.4277C160.817 33.4277 161.191 33.5522 161.44 33.739C161.69 33.9257 161.814 34.2992 161.814 34.7972V37.6605H161.253V37.785ZM159.819 37.3492C160.193 37.3492 160.505 37.2247 160.755 37.038C161.004 36.789 161.066 36.54 161.066 36.1043V35.7308H160.443C159.944 35.7308 159.57 35.8553 159.321 35.9798C159.071 36.1043 159.009 36.3533 159.009 36.6645C159.009 36.9135 159.071 37.1003 159.196 37.2247C159.321 37.3492 159.57 37.3492 159.819 37.3492Z" fill="#0033A1"/>
<path d="M168.797 37.7855L168.111 35.9804H165.867L165.181 37.7855H164.495L166.74 32.1211H167.301L169.545 37.7855H168.797ZM167.862 35.4201L167.176 33.6772C167.114 33.4283 166.989 33.1793 166.927 32.868C166.864 33.117 166.802 33.366 166.677 33.6772L165.992 35.4201H167.862Z" fill="#0033A1"/>
</g>
<defs>
<clipPath id="clip0">
<rect width="195" height="40" fill="white"/>
</clipPath>
</defs>
</svg>
