<svg width="195" height="40" fill="none" xmlns="http://www.w3.org/2000/svg"><g clip-path="url(#clip0)" fill="#0033A1"><path d="M194.429 4.778c0 1.213-.429 2.212-1.287 2.997-.857.856-1.857 1.284-3.001 1.284-1.143 0-2.215-.428-3.001-1.284-.857-.856-1.286-1.855-1.286-2.997 0-1.212.429-2.211 1.286-2.996.858-.856 1.858-1.284 3.001-1.284 1.144 0 2.215.428 3.001 1.284.858.785 1.287 1.784 1.287 2.996zm-.929 0c0-.927-.358-1.712-1.001-2.354-.643-.642-1.429-.999-2.358-.999s-1.715.357-2.358 1c-.643.641-1 1.426-1 2.353 0 .928.357 1.713 1 2.355.643.642 1.429.998 2.358.998s1.715-.356 2.358-.998 1.001-1.427 1.001-2.355zm-1.001 1.998h-1.286l-1.215-1.57h-.5v1.57h-1v-4.28h2.286c.143 0 .358.07.501.142.214.143.357.214.428.428.072.143.143.357.143.571 0 .285-.071.57-.286.785-.143.214-.357.356-.643.428l1.572 1.926zm-1.786-2.996c0-.072 0-.143-.072-.214 0-.072-.071-.143-.214-.214-.071-.072-.143-.072-.286-.072h-.643v1.213h.215c.142 0 .285 0 .428-.071.143 0 .215-.072.286-.143.072-.071.143-.143.143-.214.143-.071.143-.143.143-.285zM19.293 8.417c0 1.141-.215 2.283-.572 3.353-.357 1.07-.929 1.926-1.572 2.64-.428.427-.929.855-1.429 1.212s-1.072.713-1.715.927c-.643.286-1.286.428-2 .571-.715.143-1.573.214-2.43.214H6.288v8.204H0V.498h9.718c1.43 0 2.715.143 3.787.428 1.072.285 2 .713 2.858 1.284.93.57 1.644 1.427 2.215 2.497.5 1.07.715 2.283.715 3.71zm-6.431.214c0-.714-.143-1.284-.5-1.855-.357-.5-.715-.856-1.215-1.07-.572-.286-1.143-.428-1.715-.428-.571-.072-1.286-.072-2.215-.072h-.929v7.491h2.144c.5 0 1-.071 1.357-.143.358-.07.715-.142 1.072-.356a2.57 2.57 0 00.858-.571c.428-.428.714-.856.857-1.284.214-.357.286-.999.286-1.712zM21.294 25.61V.498H38.3v4.78H27.582V9.7h9.86v4.78h-9.86v6.349H38.3v4.78H21.294zM52.162 7.703L46.59 25.61h-6.36L48.732.498h6.86l8.503 25.111h-6.502l-5.43-17.906zM65.953 25.61L74.456.498h6.86l8.503 25.111h-6.503l-1.572-5.136h-7.86l-1.572 5.137h-6.36zm14.434-9.631l-2.573-8.276-2.572 8.276h5.145zM95.392 25.61V5.277h-7.431V.498h21.222v4.78h-7.431V25.61h-6.36zM134.621 13.054c0 4.066-1.072 7.277-3.287 9.56-2.144 2.354-5.145 3.495-8.932 3.495-3.787 0-6.788-1.213-8.932-3.567-2.143-2.354-3.215-5.493-3.215-9.56 0-4.066 1.072-7.204 3.215-9.559 2.144-2.354 5.145-3.495 8.932-3.495 3.787 0 6.788 1.141 8.932 3.495 2.144 2.426 3.287 5.636 3.287 9.631zm-6.574 0c0-1.498-.143-2.782-.429-3.78-.286-1.07-.714-1.927-1.214-2.569a5.239 5.239 0 00-1.858-1.498c-.715-.286-1.358-.428-2.144-.428s-1.5.142-2.144.428c-.643.285-1.214.785-1.786 1.498-.5.642-.929 1.498-1.286 2.568-.286 1.07-.5 2.354-.5 3.853 0 1.569.143 2.853.428 3.852.286.999.715 1.855 1.287 2.568.571.713 1.143 1.213 1.857 1.498.715.286 1.43.428 2.144.428.715 0 1.429-.142 2.144-.5.714-.356 1.286-.784 1.786-1.497.572-.714.929-1.57 1.286-2.569.286-.998.429-2.282.429-3.852zM172.277 26.11c-3.787 0-6.788-1.141-9.003-3.424s-3.358-5.493-3.358-9.63c0-3.996 1.143-7.135 3.358-9.489C165.489 1.213 168.49 0 172.277 0c1.001 0 1.93.071 2.716.143.786.142 1.572.285 2.286.5.572.142 1.215.427 1.858.712.643.286 1.215.571 1.644.785v5.993h-.572c-.286-.286-.715-.571-1.143-1-.429-.356-1.001-.712-1.572-1.07-.572-.356-1.215-.641-1.93-.927-.714-.214-1.429-.356-2.215-.356a7.08 7.08 0 00-2.501.428c-.786.285-1.5.785-2.143 1.498-.643.642-1.144 1.498-1.572 2.568-.429 1.07-.572 2.354-.572 3.852 0 1.57.214 2.854.643 3.924.429 1.07.929 1.926 1.644 2.568a5.475 5.475 0 002.215 1.356 6.968 6.968 0 002.429.428c.858 0 1.644-.143 2.358-.428a9.699 9.699 0 001.929-.928 13.63 13.63 0 001.501-1.07c.429-.356.786-.713 1.143-.998h.572v5.92c-.429.215-1 .429-1.572.714-.643.285-1.215.5-1.858.714-.786.213-1.5.427-2.215.499-.929.214-1.858.285-3.073.285z"/><path d="M160.273 25.61h-7.646l-6.859-10.202-1.215 1.712v8.49h-6.288V.498h6.288v11.2l8.003-11.2h7.288l-8.931 11.7 9.36 13.412zM14.24 37.785h-.686v-5.041h-2.868v5.041H10v-5.664h4.24v5.664zM17.482 37.847c-.624 0-1.122-.186-1.497-.56-.374-.373-.56-.871-.56-1.556s.186-1.245.498-1.618c.312-.374.81-.623 1.372-.623.56 0 .935.187 1.247.498.311.374.436.81.436 1.37v.435H16.11c0 .498.125.872.374 1.12.25.25.561.374.998.374.436 0 .935-.124 1.371-.311v.56c-.249.125-.436.187-.623.187s-.436.124-.748.124zm-.187-3.859c-.312 0-.624.125-.81.311-.188.25-.313.498-.375.934h2.245c0-.373-.063-.685-.25-.934s-.436-.31-.81-.31zM22.095 37.847c-.249 0-.498-.062-.748-.124-.25-.125-.436-.25-.56-.498h-.063c0 .249.062.498.062.684v1.743h-.623V33.49h.498l.063.56c.187-.249.374-.373.56-.498.25-.124.5-.124.749-.124.561 0 .998.187 1.31.56.311.373.436.934.436 1.618 0 .685-.125 1.245-.437 1.619-.311.373-.685.622-1.247.622zm-.062-3.797c-.436 0-.748.125-.935.374-.187.249-.312.622-.312 1.12v.125c0 .622.125.995.312 1.307.187.311.499.373.935.373.374 0 .623-.124.873-.435.187-.312.312-.685.312-1.245 0-.498-.125-.934-.312-1.245-.25-.25-.499-.374-.873-.374zM28.455 34.612c0 .249-.063.498-.25.622-.187.125-.374.25-.685.312v.062c.374.062.623.125.81.311.187.187.25.374.25.685 0 .373-.125.685-.437.934s-.686.31-1.247.31h-1.87v-4.232h1.87c.998-.062 1.559.311 1.559.996zm-.624.062c0-.187-.062-.373-.25-.435a2.038 2.038 0 00-.747-.125h-1.185v1.183h1.06c.374 0 .686-.063.81-.125.188-.124.312-.249.312-.498zm.125 1.868c0-.25-.062-.374-.25-.498-.186-.125-.436-.187-.872-.187h-1.185v1.37h1.185c.748 0 1.122-.187 1.122-.685zM30.138 35.296h1.185c.56 0 .935.124 1.184.31.25.188.374.499.374.872 0 .436-.124.747-.436.996-.25.187-.686.312-1.185.312h-1.745v-4.233h.623v1.743zm0 .56v1.37h1.06c.686 0 .997-.25.997-.685 0-.25-.062-.436-.249-.498-.187-.063-.436-.187-.81-.187h-.998zm4.115 1.93h-.624v-4.233h.624v4.233zM36.248 33.553v3.611l2.307-3.61h.748v4.232h-.623V34.176l-2.307 3.61h-.81v-4.233h.685zm1.185-.56c-.5 0-.81-.062-1.06-.249s-.312-.498-.374-.933h.623c0 .248.063.435.187.56.125.124.312.186.624.186.249 0 .436-.062.56-.186.125-.125.188-.312.25-.56h.624c0 .435-.187.684-.374.871-.25.187-.562.311-1.06.311zM44.665 37.847c-.25 0-.499-.062-.748-.124-.25-.125-.437-.25-.561-.498h-.063c0 .249.063.498.063.684v1.743h-.624V33.49h.499l.062.56c.187-.249.374-.373.561-.498.25-.124.5-.124.749-.124.56 0 .997.187 1.309.56.312.373.436.934.436 1.618 0 .685-.124 1.245-.436 1.619-.312.373-.686.622-1.247.622zm-.062-3.797c-.437 0-.749.125-.936.374-.187.249-.311.622-.311 1.12v.125c0 .622.124.995.311 1.307.187.311.5.373.936.373.374 0 .623-.124.872-.435.188-.312.312-.685.312-1.245 0-.498-.124-.934-.312-1.245-.249-.25-.498-.374-.872-.374zM51.211 35.669c0 .685-.187 1.245-.498 1.618-.312.374-.811.56-1.434.56-.375 0-.686-.062-.998-.248-.312-.187-.499-.436-.686-.747-.187-.312-.25-.747-.25-1.183 0-.685.188-1.245.5-1.618.374-.374.81-.56 1.434-.56.623 0 1.06.186 1.434.622.311.373.498.871.498 1.556zm-3.242 0c0 .56.125.934.312 1.245.187.311.561.435.935.435s.748-.124.935-.435c.188-.312.312-.685.312-1.245s-.124-.934-.312-1.245c-.249-.25-.56-.436-.935-.436-.436 0-.748.125-.935.436-.187.311-.312.685-.312 1.245zM54.08 37.847c-.624 0-1.06-.186-1.435-.56-.312-.373-.499-.933-.499-1.618s.187-1.245.5-1.618c.31-.374.81-.56 1.433-.56.187 0 .437 0 .624.062s.374.124.498.124l-.187.56a1.156 1.156 0 00-.436-.124c-.187-.063-.312-.063-.437-.063-.872 0-1.309.56-1.309 1.619 0 .498.125.934.312 1.183.187.248.499.435.935.435.374 0 .686-.062 1.06-.249v.623a2.916 2.916 0 01-1.06.186zM57.82 37.847c-.623 0-1.06-.186-1.434-.56-.312-.373-.499-.933-.499-1.618s.187-1.245.499-1.618c.312-.374.81-.56 1.434-.56.187 0 .436 0 .623.062.188.062.375.124.5.124l-.188.56a1.157 1.157 0 00-.436-.124c-.187-.063-.312-.063-.437-.063-.872 0-1.309.56-1.309 1.619 0 .498.125.934.312 1.183.187.248.498.435.935.435.374 0 .686-.062 1.06-.249v.623c-.25.124-.624.186-1.06.186zM60.5 33.553V37.163l2.308-3.61h.81v4.233h-.623V34.174l-2.307 3.61h-.81v-4.232h.623zM65.55 33.553v3.611l2.308-3.61h.748v4.232h-.623V34.176l-2.307 3.61h-.81v-4.233h.685zm1.186-.56c-.5 0-.811-.062-1.06-.249-.25-.187-.312-.498-.374-.933h.623c0 .248.062.435.187.56.125.124.312.186.624.186.249 0 .436-.062.56-.186.125-.125.188-.312.25-.56h.623c0 .435-.186.684-.374.871-.249.187-.56.311-1.06.311zM71.661 37.847c-.623 0-1.06-.186-1.434-.56-.312-.373-.499-.933-.499-1.618s.187-1.245.499-1.618c.312-.374.81-.56 1.434-.56.187 0 .436 0 .623.062.188.062.375.124.5.124l-.188.56a1.156 1.156 0 00-.436-.124c-.187-.063-.312-.063-.437-.063-.873 0-1.309.56-1.309 1.619 0 .498.125.934.312 1.183.187.248.499.435.935.435.374 0 .686-.062 1.06-.249v.623c-.25.124-.624.186-1.06.186zM76.212 33.553h.686l-1.808 2.054 1.995 2.178h-.748l-1.933-2.116v2.117h-.623v-4.233h.623v2.054l1.808-2.054zM78.457 33.553V37.163l2.307-3.61h.81v4.233h-.623V34.174l-2.307 3.61h-.81v-4.232h.623zM83.507 33.553v3.611l2.307-3.61h.81v4.232h-.623V34.176l-2.307 3.61h-.81v-4.233h.623zm1.184-.56c-.498 0-.81-.062-1.06-.249-.249-.187-.311-.498-.374-.933h.624c0 .248.062.435.187.56.125.124.312.186.624.186.249 0 .436-.062.56-.186.125-.125.188-.312.25-.56h.624c0 .435-.188.684-.375.871-.249.187-.56.311-1.06.311zM89.742 35.234c0-.934.124-1.681.436-2.179.25-.498.686-.871 1.31-.996.747-.187 1.37-.311 1.932-.373l.125.56c-.873.124-1.559.249-1.933.373-.374.063-.686.312-.873.623-.187.31-.312.747-.312 1.307h.063c.187-.187.374-.374.623-.498.25-.125.499-.187.81-.187.5 0 .936.187 1.248.498.311.311.436.81.436 1.432 0 .684-.187 1.183-.499 1.556-.311.373-.81.56-1.434.56-.623 0-1.06-.249-1.371-.684-.374-.498-.561-1.121-.561-1.992zm1.995 2.116c.81 0 1.184-.498 1.184-1.494 0-.934-.374-1.432-1.06-1.432-.187 0-.374.063-.56.125a1.357 1.357 0 00-.5.311c-.124.125-.249.25-.374.436 0 .684.125 1.182.312 1.556.187.311.499.498.998.498zM98.345 35.669c0 .685-.187 1.245-.498 1.618-.374.374-.81.56-1.434.56-.374 0-.686-.062-.998-.248-.312-.187-.499-.436-.686-.747-.187-.312-.25-.747-.25-1.183 0-.685.188-1.245.5-1.618.374-.374.81-.56 1.434-.56.623 0 1.06.186 1.434.622.311.373.498.871.498 1.556zm-3.242 0c0 .56.125.934.312 1.245.187.311.561.435.935.435.437 0 .748-.124.936-.435.186-.312.311-.685.311-1.245s-.124-.934-.311-1.245c-.188-.311-.562-.436-.998-.436-.436 0-.748.125-.935.436-.187.311-.25.685-.25 1.245zM102.336 34.113h-1.372v3.672h-.623v-3.672h-1.372v-.56h3.367v.56zM102.523 33.553h.685l.936 2.427c.187.56.311.934.374 1.183.062-.124.124-.373.187-.685.124-.31.436-1.307 1.06-2.925h.685l-1.808 4.855c-.187.498-.374.81-.623.996a1.49 1.49 0 01-.873.311c-.187 0-.374 0-.561-.062v-.498c.125 0 .312.062.499.062.436 0 .748-.249.935-.747l.249-.622-1.745-4.295zM110.378 37.785h-.623v-3.672h-1.247a13.812 13.812 0 01-.312 2.178c-.125.56-.312.934-.499 1.183a.889.889 0 01-.748.373c-.125 0-.249 0-.312-.062v-.498h.187c.312 0 .562-.311.686-.933.187-.623.312-1.557.374-2.864h2.494v4.295zM115.366 35.669c0 .685-.187 1.245-.499 1.618-.374.374-.81.56-1.434.56-.374 0-.685-.062-.997-.248-.312-.187-.499-.436-.686-.747-.187-.312-.249-.747-.249-1.183 0-.685.187-1.245.498-1.618.312-.374.811-.56 1.434-.56.624 0 1.06.186 1.434.622.312.373.499.871.499 1.556zm-3.242 0c0 .56.125.934.312 1.245.187.311.561.435.935.435s.748-.124.935-.435c.25-.312.312-.685.312-1.245s-.125-.934-.312-1.245c-.187-.25-.561-.436-.935-.436-.436 0-.748.125-.935.436-.187.311-.312.685-.312 1.245zM119.356 34.113h-1.371v3.672h-.624v-3.672h-1.371v-.56h3.366v.56zM123.845 35.669c0 .685-.187 1.245-.498 1.618-.375.374-.811.56-1.434.56-.374 0-.686-.062-.998-.248-.312-.187-.499-.436-.686-.747-.187-.312-.249-.747-.249-1.183 0-.685.187-1.245.499-1.618.311-.374.81-.56 1.434-.56.623 0 1.059.186 1.434.622.374.373.498.871.498 1.556zm-3.179 0c0 .56.124.934.311 1.245.187.311.562.435.936.435s.748-.124.935-.435c.249-.312.312-.685.312-1.245s-.125-.934-.312-1.245c-.187-.25-.561-.436-.935-.436-.437 0-.749.125-.936.436-.249.311-.311.685-.311 1.245zM127.461 33.553h.686l-1.808 2.054 1.995 2.178h-.748l-1.933-2.116v2.117h-.623v-4.233h.623v2.054l1.808-2.054zM130.828 37.847c-.623 0-1.06-.186-1.434-.56-.312-.373-.499-.933-.499-1.618s.187-1.245.499-1.618c.312-.374.811-.56 1.434-.56.187 0 .436 0 .624.062.187.062.374.124.498.124l-.187.56a1.15 1.15 0 00-.436-.124c-.187-.063-.312-.063-.437-.063-.872 0-1.309.56-1.309 1.619 0 .498.125.934.312 1.183.187.248.499.435.935.435.374 0 .686-.062 1.06-.249v.623a2.693 2.693 0 01-1.06.186zM133.509 33.553V37.163l2.307-3.61h.81v4.233h-.623V34.174l-2.307 3.61h-.811v-4.232h.624zM138.559 33.553v1.805h2.369v-1.805h.624v4.233h-.624v-1.93h-2.369v1.93h-.623v-4.233h.623zM147.849 34.113h-1.372v3.672h-.623v-3.672h-1.372v-.56h3.367v.56zM149.283 33.553V37.163l2.307-3.61h.81v4.233h-.623V34.174l-2.307 3.61h-.811v-4.232h.624zM154.395 37.785h-.623v-4.232h3.554v4.233h-.624v-3.673h-2.244v3.672h-.063zM161.253 37.785l-.124-.622a2.534 2.534 0 01-.624.56c-.187.124-.499.124-.81.124-.437 0-.749-.124-.998-.311s-.374-.498-.374-.934c0-.871.686-1.307 2.057-1.37h.749v-.248c0-.311-.063-.56-.187-.747-.125-.187-.375-.25-.686-.25-.374 0-.748.125-1.185.312l-.187-.498c.187-.124.437-.187.686-.249.249-.062.499-.124.748-.124.499 0 .873.124 1.122.311.25.187.374.56.374 1.058v2.864h-.561v.124zm-1.434-.436c.374 0 .686-.124.936-.311.249-.249.311-.498.311-.934v-.373h-.623a2.49 2.49 0 00-1.122.249c-.25.124-.312.373-.312.684 0 .25.062.436.187.56.125.125.374.125.623.125zM168.797 37.785l-.686-1.805h-2.244l-.686 1.806h-.686l2.245-5.665h.561l2.244 5.664h-.748zm-.935-2.365l-.686-1.743c-.062-.249-.187-.498-.249-.809-.063.249-.125.498-.25.81l-.685 1.742h1.87z"/></g><defs><clipPath id="clip0"><path fill="#fff" d="M0 0h195v40H0z"/></clipPath></defs></svg>