<svg width="50" height="50" fill="none" xmlns="http://www.w3.org/2000/svg"><g clip-path="url(#clip0)"><path d="M4.531 28.199c.088-2.764-.556-3.849-.957-8.185a.352.352 0 01-.068-.098 1.903 1.903 0 00-2.227-1.172c-.918.303-1.347 1.475-1.27 3.467.118 2.892 1.944 4.787 4.522 5.988zM5.254 18.45c2.07-3.672 6.406-9.2 14.258-10.411 3.984-.616 9.306-2.325 9.922-6.29a15.062 15.062 0 00-2.11-.84C25.01 3.368 21.133 4.492 17.803 5a17.797 17.797 0 00-12.598 8.85c-.039 1.494-.039 2.617.049 4.6zM18.516 46.992a17.72 17.72 0 01-5.117-2.608v4.708c0 .488.4.889.888.889h12.5c.488 0 .889-.4.889-.89v-1.23a13.67 13.67 0 01-1.924-2.256 19.63 19.63 0 01-3.184 1.387 6.261 6.261 0 01-4.052 0z" fill="#0033A1"/><path d="M35.244 23.413c.244-1.338.283-1.7.4-2.735A22.892 22.892 0 0019.678 9.836C10.273 11.34 6.416 19.74 5.576 21.889c.42 2.022.674 4.073.742 6.134a12.722 12.722 0 00.118 3.106c.84 5.275 4.316 9.455 8.818 12.366a16.75 16.75 0 003.828 1.807 4.634 4.634 0 002.91 0 18.615 18.615 0 002.832-1.221 14.254 14.254 0 01-.088-13.01 14.24 14.24 0 0110.508-7.658zM17.53 3.243c2.675-.41 5.615-1.192 7.734-2.882C23.076-.098 22.86.02 18.154.02 17.695.03 6.318.674 5.352 10.5a18.814 18.814 0 0112.177-7.257zM39.805 18.744a1.91 1.91 0 00-2.237 1.172c-.02.03-.039.068-.068.098-.107 1.191-.117 1.406-.41 3.213 1.26-.039 2.52.098 3.75.391.4-1.504.45-4.376-1.035-4.874z" fill="#0033A1"/><path d="M27.451 7.208a15.554 15.554 0 01-3.808 1.72 24.3 24.3 0 0112.207 8.8c.058-1.621.048-2.842.02-3.829a22.006 22.006 0 00-8.419-6.69zM35.762 11.008a10.238 10.238 0 00-4.707-8.312 7.218 7.218 0 01-2.022 3.292 23.861 23.861 0 016.729 5.02z" fill="#0033A1"/><path d="M25.947 32.711a12.493 12.493 0 003.614 14.447 12.5 12.5 0 0019.902-13.274 12.5 12.5 0 00-11.943-8.889 12.532 12.532 0 00-11.573 7.716zM38.975 26.9c.898.127 1.787.361 2.627.693 5.44 2.286 8.027 8.527 5.8 13.997v.01l-.01.02a10.709 10.709 0 01-19.755.019c-3.272-7.296 2.949-15.911 11.338-14.74z" fill="#BE9230"/><path d="M37.5 29c-4.687 0-8.5 3.813-8.5 8.5 0 4.687 3.813 8.5 8.5 8.5 4.687 0 8.5-3.813 8.5-8.5 0-4.687-3.813-8.5-8.5-8.5zm-1.374 12.76l-3.714-3.715 1.574-1.574 2.14 2.14 4.967-4.967 1.574 1.574-6.54 6.541z" fill="#BE9230"/></g><defs><clipPath id="clip0"><path fill="#fff" d="M0 0h50v50H0z"/></clipPath></defs></svg>