<svg width="30" height="30" fill="none" xmlns="http://www.w3.org/2000/svg"><g clip-path="url(#clip0)" fill="#BE9230"><path d="M15.005 7.297a7.697 7.697 0 00-7.698 7.697 7.697 7.697 0 007.698 7.698 7.697 7.697 0 007.697-7.698 7.697 7.697 0 00-7.697-7.697zm0 12.694a4.995 4.995 0 01-4.996-4.997 4.995 4.995 0 014.996-4.996A4.995 4.995 0 0120 14.994a4.994 4.994 0 01-4.996 4.997z"/><path d="M21.185.096c-2.76-.129-9.597-.122-12.36 0-2.427.114-4.568.7-6.294 2.426C-.354 5.407.015 9.295.015 14.996c0 5.835-.325 9.633 2.516 12.474 2.896 2.895 6.84 2.516 12.474 2.516 5.78 0 7.775.004 9.818-.787 2.78-1.08 4.877-3.563 5.082-8.024.13-2.761.122-9.596 0-12.359-.248-5.266-3.074-8.46-8.72-8.72zm4.368 25.465c-1.89 1.891-4.515 1.723-10.585 1.723-6.25 0-8.756.092-10.585-1.742-2.106-2.096-1.725-5.462-1.725-10.566 0-6.906-.708-11.88 6.223-12.235 1.592-.056 2.061-.075 6.07-.075l.056.038c6.661 0 11.888-.698 12.201 6.232.072 1.581.088 2.056.088 6.059-.001 6.177.116 8.699-1.743 10.566z"/><path d="M23.007 8.793a1.799 1.799 0 100-3.598 1.799 1.799 0 000 3.598z"/></g><defs><clipPath id="clip0"><path fill="#fff" d="M0 0h30v30H0z"/></clipPath></defs></svg>