<svg width="50" height="50" fill="none" xmlns="http://www.w3.org/2000/svg"><path d="M32.26 36.948a.781.781 0 011.334.552v5.469h1.562V37.5a.782.782 0 011.334-.552l1.01 1.01 1.24-1.24-4.365-4.363-4.364 4.364 1.239 1.239 1.01-1.01zM25.458 41.406l-4.364-4.364-4.364 4.364 1.239 1.24 1.01-1.01a.781.781 0 011.334.551v5.47h1.562v-5.47a.782.782 0 011.334-.552l1.01 1.01 1.239-1.239z" fill="#BE9230"/><path d="M26.98 30.24a6.07 6.07 0 01-4.324 1.791h-3.393a6.078 6.078 0 01-4.325-1.791 4.52 4.52 0 00-3.22-1.334H1.564v6.708l4.916-4.916a.781.781 0 011.105 0l5.468 5.468a.781.781 0 010 1.105l-2.343 2.344a.782.782 0 01-1.105 0l-.229-.229v4.364a.781.781 0 01-.781.781H5.469a.781.781 0 01-.782-.781v-4.364l-.228.229a.781.781 0 01-1.105 0l-1.792-1.791v9.832H18.75v-3.582l-.229.228a.781.781 0 01-1.105 0l-2.343-2.343a.781.781 0 010-1.105l5.468-5.469a.781.781 0 011.105 0l5.469 5.469a.781.781 0 010 1.105l-2.344 2.343a.781.781 0 01-1.105 0l-.229-.228v3.582h25v-18.75H30.201a4.533 4.533 0 00-3.22 1.334zm7.947.458l5.47 5.468a.781.781 0 010 1.105l-2.345 2.344a.781.781 0 01-1.104 0l-.23-.229v4.364a.782.782 0 01-.78.781h-3.126a.781.781 0 01-.78-.781v-4.364l-.23.229a.781.781 0 01-1.104 0l-2.344-2.344a.781.781 0 010-1.105l5.469-5.468a.781.781 0 011.104 0z" fill="#0033A1"/><path d="M29.418 25.781a4.52 4.52 0 00-3.219 1.334 6.076 6.076 0 01-4.324 1.791h-1.832a6.081 6.081 0 01-4.324-1.79A4.518 4.518 0 0012.5 25.78H1.562v1.563H11.72a6.071 6.071 0 014.324 1.791 4.529 4.529 0 003.22 1.334h3.393a4.521 4.521 0 003.22-1.334 6.077 6.077 0 014.325-1.791h18.236V25.78H29.419z" fill="#0033A1"/><path d="M7.812 42.969V37.5a.781.781 0 011.334-.552l1.01 1.01 1.24-1.24-4.365-4.363-4.364 4.364 1.24 1.239 1.01-1.01a.781.781 0 011.333.552v5.469h1.562zM17.31 27.544l5.117-5.117 1.01 1.01L25 21.875l.781.781L36.72 11.72l-1.563-1.563 4.297-4.297 1.172 1.172 1.562-1.562-3.906-3.907-1.562 1.563 1.172 1.172-4.297 4.297L32.03 7.03l-2.963 2.964 1.953 1.953-1.105 1.104-1.953-1.953-1.239 1.24 1.953 1.952-1.104 1.105-1.954-1.953-1.239 1.239 1.954 1.953-1.105 1.105-1.953-1.953-2.182 2.182.78.781-1.562 1.563 1.01 1.01-5.117 5.117 1.105 1.104z" fill="#BE9230"/></svg>