<svg width="15" height="16" viewBox="0 0 15 16" fill="none" xmlns="http://www.w3.org/2000/svg">
<path d="M13.75 11.0751V12.9501C13.7507 13.1241 13.715 13.2964 13.6453 13.4559C13.5755 13.6154 13.4733 13.7586 13.345 13.8762C13.2167 13.9939 13.0653 14.0835 12.9004 14.1393C12.7355 14.195 12.5608 14.2157 12.3875 14.2001C10.4642 13.9911 8.61683 13.3339 6.99371 12.2813C5.4836 11.3217 4.20329 10.0414 3.24371 8.53131C2.18744 6.90081 1.53011 5.04443 1.32496 3.11256C1.30934 2.93973 1.32988 2.76554 1.38527 2.60108C1.44066 2.43662 1.52969 2.28549 1.64669 2.15732C1.76368 2.02916 1.90609 1.92675 2.06483 1.85664C2.22357 1.78652 2.39517 1.75022 2.56871 1.75006H4.44371C4.74702 1.74708 5.04108 1.85448 5.27106 2.05227C5.50104 2.25005 5.65126 2.52471 5.69371 2.82506C5.77285 3.4251 5.91961 4.01426 6.13121 4.58131C6.2153 4.80501 6.2335 5.04813 6.18365 5.28186C6.1338 5.51559 6.018 5.73013 5.84996 5.90006L5.05621 6.69381C5.94593 8.25853 7.24149 9.55409 8.80621 10.4438L9.59996 9.65006C9.76989 9.48202 9.98443 9.36622 10.2182 9.31637C10.4519 9.26652 10.695 9.28472 10.9187 9.36881C11.4858 9.5804 12.0749 9.72717 12.675 9.80631C12.9786 9.84914 13.2558 10.0021 13.454 10.236C13.6522 10.4699 13.7576 10.7685 13.75 11.0751Z" stroke="#A4A8AC" stroke-width="1.41667" stroke-linecap="round" stroke-linejoin="round"/>
</svg>
