<svg width="20" height="20" fill="none" xmlns="http://www.w3.org/2000/svg"><path d="M13.264 12.412l1.377-1.377L20 16.395l-1.377 1.376-5.36-5.359zM2.23 1.377L3.606 0l5.359 5.359-1.377 1.377-5.36-5.359zM12.418 13.225a20.31 20.31 0 01-3.061-2.532A20.324 20.324 0 016.824 7.63L1.4 2.207l-.545.546-.016.016C-.202 3.895-.277 5.797.629 8.124c.849 2.183 2.48 4.548 4.59 6.658 2.135 2.136 4.524 3.776 6.727 4.617C13 19.8 13.961 20 14.803 20c1.041 0 1.898-.307 2.508-.917l.483-.484-5.376-5.375z" fill="#F3D79A"/></svg>