<svg width="18" height="20" fill="none" xmlns="http://www.w3.org/2000/svg"><path d="M9 14.13c2.991 0 5.416-2.383 5.416-5.323 0-2.94-2.425-5.323-5.416-5.323-2.991 0-5.416 2.384-5.416 5.323 0 2.94 2.425 5.323 5.416 5.323z" fill="#F3D79A"/><path d="M15.364 2.59A9.02 9.02 0 009 0a9.02 9.02 0 00-6.364 2.59A8.712 8.712 0 000 8.846c0 4.169 2.965 7.767 7.084 8.644L9 20l1.916-2.51C15.035 16.611 18 13.013 18 8.844a8.712 8.712 0 00-2.636-6.254zM9 2.31c3.645 0 6.61 2.914 6.61 6.496 0 3.583-2.965 6.497-6.61 6.497-3.645 0-6.61-2.914-6.61-6.497C2.39 5.224 5.355 2.31 9 2.31z" fill="#F3D79A"/></svg>