<svg width="50" height="50" fill="none" xmlns="http://www.w3.org/2000/svg"><g clip-path="url(#clip0)"><path d="M45.043 33.28H43.05c.053-.283.172-.624.414-1 .747-1.157.906-2.178 1.047-3.08.089-.568.173-1.105.4-1.724.203-.549.592-.994.99-1.333l1.377 3.395L50 28.434l-4.925-12.178-1.197.242c-.136.027-3.368.72-5.389 4.462-1.475 2.731-4.795 4.852-8.836 5.702l-.805-2.954-1.436.42c-2.372.694-3.75 1.32-5.872 2.573l-.035.046-5.579 7.49h-4.579s-2.565-3.496-4.03-5.448a6.388 6.388 0 00-2.162 1.362c-1.583 1.512-2.228 4.013-1.719 6.301L0 38.737l4.063 7.349h1.971l1.523-1.714a8.112 8.112 0 016.059-2.721 8.12 8.12 0 015.321 1.991c1.684 1.462 3.322 2.265 4.862 2.436 1.769.197 2.835-.236 4.263-.694 1.082-.347 1.908-.703 3.326-.519.6.078 1.145.115 1.645.115 2.802 0 4.146-1.17 5.204-2.906.366-.6.877-.945 1.363-1.098 1.273-.401 2.444 1.092 2.444 1.092l2.775-1.364c.493 1.36.744 2.78.744 4.231H48.5c0-1.96-.369-3.877-1.096-5.697l-2.361-5.958z" fill="#0033A1"/><path d="M12.836 31.3h1.602l4.733-6.336c1.997-2.614 4.733-6.193 4.733-10.824 0-5.661-4.606-10.267-10.267-10.267S3.37 8.479 3.37 14.14c0 4.631 2.736 8.21 4.733 10.824l4.733 6.337zM8.748 14.14a4.894 4.894 0 014.889-4.889 4.895 4.895 0 014.889 4.89 4.894 4.894 0 01-4.889 4.888 4.894 4.894 0 01-4.889-4.889z" fill="#BE9230"/><path d="M15.446 14.89a1.952 1.952 0 10-3.606-1.495 1.952 1.952 0 003.606 1.495z" fill="#BE9230"/></g><defs><clipPath id="clip0"><path fill="#fff" d="M0 0h50v50H0z"/></clipPath></defs></svg>