<svg width="50" height="50" fill="none" xmlns="http://www.w3.org/2000/svg"><path d="M37.31 42.068l1.074-2.052a28.541 28.541 0 014.913-6.758l1.62-1.654-.337-2.291a28.538 28.538 0 01.004-8.355l.34-2.29-1.603-1.636a28.539 28.539 0 01-4.94-6.808l-1.056-2.029-2.244-.376a28.53 28.53 0 01-8.025-2.611l-2.035-1.016-2.048 1.02a28.54 28.54 0 01-8 2.598l-2.258.379-1.073 2.052a28.54 28.54 0 01-4.913 6.758l-1.621 1.654.337 2.29a28.542 28.542 0 01-.003 8.356l-.34 2.29 1.603 1.636a28.535 28.535 0 014.94 6.808l1.055 2.029 2.244.377a28.535 28.535 0 018.025 2.61l2.036 1.016 2.048-1.02a28.544 28.544 0 018-2.598l2.257-.379zM25.013 39.32c-7.825 0-14.191-6.367-14.191-14.192 0-7.824 6.366-14.19 14.19-14.19 7.826 0 14.192 6.365 14.192 14.19 0 7.825-6.366 14.191-14.191 14.191z" fill="#0033A1"/><path d="M25.013 13.883c-6.201 0-11.246 5.045-11.246 11.245 0 6.201 5.045 11.246 11.246 11.246 6.2 0 11.245-5.045 11.245-11.246 0-6.2-5.045-11.245-11.245-11.245zm-1.818 16.88l-4.914-4.913 2.083-2.083 2.831 2.831 6.571-6.57 2.083 2.082-8.654 8.653z" fill="#BE9230"/><path d="M44.461 36.33a25.602 25.602 0 00-3.467 5.051l-1.752 3.35-2.236.375 4.885 4.885 2.177-5.986L50 41.87l-5.539-5.538zM39.26 5.533l1.734 3.332a25.588 25.588 0 003.418 5.01L50 8.287 44.068 6.15 41.89 0l-4.974 5.14 2.343.393zM5.612 13.873a25.596 25.596 0 003.42-4.997l1.752-3.35 2.322-.39L8.126 0 5.96 6.02 0 8.262l5.61 5.612zM10.765 44.724l-1.734-3.332a25.592 25.592 0 00-3.464-5.064L0 41.895l5.958 2.24L8.125 50l4.898-4.898-2.258-.378z" fill="#0033A1"/></svg>