<svg width="15" height="16" viewBox="0 0 15 16" fill="none" xmlns="http://www.w3.org/2000/svg">
<path d="M13.7499 11.0751V12.9501C13.7506 13.1241 13.7149 13.2964 13.6452 13.4559C13.5755 13.6154 13.4732 13.7586 13.3449 13.8762C13.2167 13.9939 13.0653 14.0835 12.9004 14.1393C12.7355 14.195 12.5608 14.2157 12.3874 14.2001C10.4642 13.9911 8.61677 13.3339 6.99365 12.2813C5.48354 11.3217 4.20323 10.0414 3.24365 8.53131C2.18738 6.90081 1.53005 5.04443 1.3249 3.11256C1.30928 2.93973 1.32982 2.76554 1.38521 2.60108C1.4406 2.43662 1.52963 2.28549 1.64663 2.15732C1.76362 2.02916 1.90603 1.92675 2.06477 1.85664C2.22351 1.78652 2.39511 1.75022 2.56865 1.75006H4.44365C4.74696 1.74708 5.04102 1.85448 5.271 2.05227C5.50098 2.25005 5.6512 2.52471 5.69365 2.82506C5.77279 3.4251 5.91955 4.01426 6.13115 4.58131C6.21524 4.80501 6.23344 5.04813 6.18359 5.28186C6.13374 5.51559 6.01794 5.73013 5.8499 5.90006L5.05615 6.69381C5.94587 8.25853 7.24143 9.55409 8.80615 10.4438L9.5999 9.65006C9.76983 9.48202 9.98437 9.36622 10.2181 9.31637C10.4518 9.26652 10.6949 9.28472 10.9186 9.36881C11.4857 9.5804 12.0749 9.72717 12.6749 9.80631C12.9785 9.84914 13.2558 10.0021 13.454 10.236C13.6522 10.4699 13.7575 10.7685 13.7499 11.0751Z" stroke="#0033A1" stroke-width="1.41667" stroke-linecap="round" stroke-linejoin="round"/>
</svg>
