<svg width="20" height="20" viewBox="0 0 20 20" fill="none" xmlns="http://www.w3.org/2000/svg">
<path d="M13.2637 12.4125L14.641 11.0352L20 16.3941L18.6227 17.7714L13.2637 12.4125Z" fill="#F3D79A"/>
<path d="M2.22949 1.3773L3.60682 0L8.96583 5.3589L7.5885 6.7362L2.22949 1.3773Z" fill="#F3D79A"/>
<path d="M12.4179 13.2246C11.3583 12.5166 10.3305 11.6665 9.35674 10.6927C8.38177 9.71779 7.53204 8.69001 6.8244 7.6313L1.40042 2.20703L0.854808 2.75263L0.838761 2.76946C-0.201964 3.89549 -0.276721 5.79725 0.62858 8.12406C1.47791 10.3072 3.10808 12.672 5.21849 14.7824C7.35435 16.9182 9.74344 18.5577 11.9462 19.3988C12.9991 19.8008 13.9615 20.0008 14.8026 20.0008C15.8445 20.0008 16.7005 19.6939 17.3107 19.0837L17.7941 18.6004L12.4179 13.2246Z" fill="#F3D79A"/>
</svg>
