<svg width="50" height="50" fill="none" xmlns="http://www.w3.org/2000/svg"><g clip-path="url(#clip0)"><path d="M9.235 26.802a4.308 4.308 0 00-.614 2.217v.291a4.315 4.315 0 004.31 4.31 4.315 4.315 0 004.31-4.31v-.29c0-.781-.212-1.548-.614-2.218L12.93 20.64l-3.696 6.162z" fill="#0033A1"/><path d="M25.667 44.327L22.11 32.759h-4.233a6.028 6.028 0 01-4.945 2.586 6.028 6.028 0 01-4.945-2.586H3.753l-1.06 3.448h3.341v1.724H2.162l-.53 1.724h6.989v1.724H1.1l-.53 1.724h5.463v1.725H.08c-.048.26-.08.523-.08.788A4.388 4.388 0 004.384 50h17.094a4.388 4.388 0 004.19-5.673zM20.69 15.517v1.724h12.069V3.448H18.965v6.897h1.725c.95 0 1.724.773 1.724 1.724v1.724c0 .951-.774 1.724-1.724 1.724z" fill="#BE9230"/><path d="M5.172 12.069H20.69v1.724H5.172V12.07z" fill="#0033A1"/><path d="M15.517 0v10.345h1.724v-8.62h17.242v17.24H20.69v2.66c0 .438.065.872.195 1.29l6.431 20.905A6.086 6.086 0 0125.721 50H50V0H15.517zm32.759 28.586H24.138v-1.724h24.138v1.724zm0-4.448H24.138v-1.724h24.138v1.724zm0-6.035h-12.07V16.38h12.07v1.724zm0-4.896h-12.07v-1.724h12.07v1.724zm0-4.448h-12.07V7.034h12.07V8.76z" fill="#0033A1"/><path d="M6.897 29.31v-.29c0-1.094.297-2.168.86-3.106l5.174-8.623 5.174 8.624c.563.937.86 2.012.86 3.104v.291a6 6 0 01-.254 1.725h2.866l-2.342-7.613a6.101 6.101 0 01-.27-1.797v-6.108H6.897v6.108a6.1 6.1 0 01-.27 1.797l-2.343 7.613H7.15a6.028 6.028 0 01-.253-1.725z" fill="#0033A1"/></g><defs><clipPath id="clip0"><path fill="#fff" d="M0 0h50v50H0z"/></clipPath></defs></svg>