<svg width="20" height="20" viewBox="0 0 20 20" fill="none" xmlns="http://www.w3.org/2000/svg">
<path d="M17.0711 2.92891C15.1824 1.04023 12.6711 0 10 0C7.32891 0 4.81758 1.04023 2.92891 2.92891C1.04023 4.81758 0 7.32891 0 10C0 12.6711 1.04023 15.1824 2.92891 17.0711C4.81758 18.9598 7.32891 20 10 20C12.6711 20 15.1824 18.9598 17.0711 17.0711C18.9598 15.1824 20 12.6711 20 10C20 7.32891 18.9598 4.81758 17.0711 2.92891ZM14.3254 12.9441C14.7066 13.3258 14.7066 13.9438 14.3254 14.3254C14.1348 14.516 13.8848 14.6113 13.6348 14.6113C13.3848 14.6113 13.1348 14.516 12.9441 14.3254L10 11.3812L7.05586 14.3254C6.86523 14.516 6.61523 14.6113 6.36523 14.6113C6.11523 14.6113 5.86523 14.516 5.67461 14.3254C5.29336 13.9438 5.29336 13.3258 5.67461 12.9441L8.61875 10L5.67461 7.05586C5.29336 6.67422 5.29336 6.05625 5.67461 5.67461C6.05625 5.29297 6.67422 5.29297 7.05586 5.67461L10 8.61875L12.9441 5.67461C13.3258 5.29336 13.9438 5.29297 14.3254 5.67461C14.707 6.05586 14.707 6.67422 14.3254 7.05586L11.3812 10L14.3254 12.9441Z" fill="#A4A8AC"/>
</svg>
